<svg width="44" height="43" viewBox="0 0 44 43" fill="none" xmlns="http://www.w3.org/2000/svg">
<rect width="44" height="43" fill="#0050FF"/>
<path d="M30 15.98C26.67 15.65 23.32 15.48 19.98 15.48C18 15.48 16.02 15.58 14.04 15.78L12 15.98" stroke="white" stroke-width="1.5" stroke-linecap="round" stroke-linejoin="round"/>
<path d="M17.5 14.97L17.72 13.66C17.88 12.71 18 12 19.69 12H22.31C24 12 24.13 12.75 24.28 13.67L24.5 14.97" stroke="white" stroke-width="1.5" stroke-linecap="round" stroke-linejoin="round"/>
<path d="M27.85 19.14L27.2 29.21C27.09 30.78 27 32 24.21 32H17.79C15 32 14.91 30.78 14.8 29.21L14.15 19.14" stroke="white" stroke-width="1.5" stroke-linecap="round" stroke-linejoin="round"/>
<path d="M19.33 26.5H22.66" stroke="white" stroke-width="1.5" stroke-linecap="round" stroke-linejoin="round"/>
<path d="M18.5 22.5H23.5" stroke="white" stroke-width="1.5" stroke-linecap="round" stroke-linejoin="round"/>
</svg>
